<svg width="79" height="79" viewBox="0 0 79 79" fill="none" xmlns="http://www.w3.org/2000/svg">
<path fill-rule="evenodd" clip-rule="evenodd" d="M39.5001 0.541664C17.9845 0.541664 0.541748 17.9844 0.541748 39.5C0.541748 61.0156 17.9845 78.4583 39.5001 78.4583C61.0157 78.4583 78.4584 61.0156 78.4584 39.5C78.4584 17.9844 61.0157 0.541664 39.5001 0.541664ZM43.0417 53.6667C43.0417 54.606 42.6686 55.5068 42.0044 56.171C41.3402 56.8352 40.4394 57.2083 39.5001 57.2083C38.5608 57.2083 37.6599 56.8352 36.9957 56.171C36.3316 55.5068 35.9584 54.606 35.9584 53.6667V43.0417H25.3334C24.3941 43.0417 23.4933 42.6685 22.8291 42.0043C22.1649 41.3401 21.7917 40.4393 21.7917 39.5C21.7917 38.5607 22.1649 37.6599 22.8291 36.9957C23.4933 36.3315 24.3941 35.9583 25.3334 35.9583H35.9584V25.3333C35.9584 24.394 36.3316 23.4932 36.9957 22.829C37.6599 22.1648 38.5608 21.7917 39.5001 21.7917C40.4394 21.7917 41.3402 22.1648 42.0044 22.829C42.6686 23.4932 43.0417 24.394 43.0417 25.3333V35.9583H53.6667C54.6061 35.9583 55.5069 36.3315 56.1711 36.9957C56.8353 37.6599 57.2084 38.5607 57.2084 39.5C57.2084 40.4393 56.8353 41.3401 56.1711 42.0043C55.5069 42.6685 54.6061 43.0417 53.6667 43.0417H43.0417V53.6667Z" fill="black"/>
</svg>
