<svg width="21" height="20" viewBox="0 0 21 20" fill="none" xmlns="http://www.w3.org/2000/svg">
<path d="M16.9192 2.84675V1.563C16.9192 1.34751 17.0048 1.14085 17.1572 0.988472C17.3096 0.836099 17.5162 0.750497 17.7317 0.750497C17.9472 0.750497 18.1539 0.836099 18.3062 0.988472C18.4586 1.14085 18.5442 1.34751 18.5442 1.563V5.34762C18.5442 5.56311 18.4586 5.76977 18.3062 5.92215C18.1539 6.07452 17.9472 6.16012 17.7317 6.16012H13.9487C13.7332 6.16012 13.5266 6.07452 13.3742 5.92215C13.2218 5.76977 13.1362 5.56311 13.1362 5.34762C13.1362 5.13213 13.2218 4.92547 13.3742 4.7731C13.5266 4.62072 13.7332 4.53512 13.9487 4.53512H16.3098C15.3963 3.53988 14.2491 2.78811 12.9719 2.34784C11.6948 1.90757 10.328 1.79271 8.99526 2.01363C7.66252 2.23456 6.40591 2.7843 5.33912 3.61312C4.27233 4.44194 3.42903 5.52368 2.88554 6.76045C2.34205 7.99722 2.11551 9.34998 2.22642 10.6963C2.33734 12.0427 2.78221 13.3402 3.52078 14.4713C4.25934 15.6025 5.2683 16.5316 6.45635 17.1747C7.64439 17.8177 8.97403 18.1544 10.325 18.1542C11.3919 18.1542 12.4485 17.9441 13.4343 17.5358C14.42 17.1274 15.3157 16.529 16.0702 15.7745C16.8247 15.02 17.4232 14.1243 17.8315 13.1386C18.2398 12.1528 18.45 11.0962 18.45 10.0292H20.075C20.075 12.6151 19.0477 15.0951 17.2192 16.9235C15.3908 18.752 12.9108 19.7792 10.325 19.7792C7.73909 19.7792 5.25914 18.752 3.43066 16.9235C1.60218 15.0951 0.574951 12.6151 0.574951 10.0292C0.574817 8.1362 1.12577 6.28406 2.16058 4.69887C3.19538 3.11369 4.66927 1.86403 6.40236 1.10243C8.13544 0.340823 10.0528 0.10021 11.9203 0.409958C13.7878 0.719706 15.5248 1.56642 16.9192 2.84675Z" fill="black"/>
</svg>
