<svg width="40" height="40" viewBox="0 0 40 40" fill="none" xmlns="http://www.w3.org/2000/svg">
<path d="M30 32.5C30 33.8261 29.4732 35.0979 28.5355 36.0355C27.5979 36.9732 26.3261 37.5 25 37.5H7.5C6.17392 37.5 4.90215 36.9732 3.96447 36.0355C3.02678 35.0979 2.5 33.8261 2.5 32.5V15C2.5 13.6739 3.02678 12.4021 3.96447 11.4645C4.90215 10.5268 6.17392 10 7.5 10V12.5C6.83696 12.5 6.20107 12.7634 5.73223 13.2322C5.26339 13.7011 5 14.337 5 15V32.5C5 33.163 5.26339 33.7989 5.73223 34.2678C6.20107 34.7366 6.83696 35 7.5 35H25C25.663 35 26.2989 34.7366 26.7678 34.2678C27.2366 33.7989 27.5 33.163 27.5 32.5H30Z" fill="#CACACA"/>
<path d="M15 5C14.337 5 13.7011 5.26339 13.2322 5.73223C12.7634 6.20107 12.5 6.83696 12.5 7.5V25C12.5 25.663 12.7634 26.2989 13.2322 26.7678C13.7011 27.2366 14.337 27.5 15 27.5H32.5C33.163 27.5 33.7989 27.2366 34.2678 26.7678C34.7366 26.2989 35 25.663 35 25V7.5C35 6.83696 34.7366 6.20107 34.2678 5.73223C33.7989 5.26339 33.163 5 32.5 5H15ZM15 2.5H32.5C33.8261 2.5 35.0979 3.02678 36.0355 3.96447C36.9732 4.90215 37.5 6.17392 37.5 7.5V25C37.5 26.3261 36.9732 27.5979 36.0355 28.5355C35.0979 29.4732 33.8261 30 32.5 30H15C13.6739 30 12.4021 29.4732 11.4645 28.5355C10.5268 27.5979 10 26.3261 10 25V7.5C10 6.17392 10.5268 4.90215 11.4645 3.96447C12.4021 3.02678 13.6739 2.5 15 2.5Z" fill="#CACACA"/>
</svg>
