<svg width="298" height="135" viewBox="0 0 298 135" fill="none" xmlns="http://www.w3.org/2000/svg">
<path d="M86.15 46V30.192L72.006 1.328H82.694L87.43 11.696L90.886 20.464H91.398L94.854 11.696L99.59 1.328H109.894L95.75 30.192V46H86.15ZM129.325 46.768C123.352 46.768 118.936 44.7413 116.077 40.688C113.261 36.6347 111.853 30.96 111.853 23.664C111.853 16.368 113.261 10.6933 116.077 6.64C118.936 2.58666 123.352 0.559998 129.325 0.559998C135.298 0.559998 139.693 2.58666 142.509 6.64C145.368 10.6933 146.797 16.368 146.797 23.664C146.797 30.96 145.368 36.6347 142.509 40.688C139.693 44.7413 135.298 46.768 129.325 46.768ZM129.325 39.024C132.056 39.024 133.933 38.0213 134.957 36.016C136.024 33.968 136.557 31.1307 136.557 27.504V19.76C136.557 16.176 136.024 13.3813 134.957 11.376C133.933 9.328 132.056 8.304 129.325 8.304C126.594 8.304 124.696 9.328 123.629 11.376C122.605 13.3813 122.093 16.176 122.093 19.76V27.568C122.093 31.152 122.605 33.968 123.629 36.016C124.696 38.0213 126.594 39.024 129.325 39.024ZM161.62 1.328V29.616C161.62 31.024 161.663 32.3253 161.748 33.52C161.876 34.672 162.132 35.6533 162.516 36.464C162.943 37.2747 163.561 37.9147 164.372 38.384C165.183 38.8107 166.292 39.024 167.7 39.024C169.108 39.024 170.217 38.8107 171.028 38.384C171.839 37.9147 172.436 37.2747 172.82 36.464C173.247 35.6533 173.503 34.672 173.588 33.52C173.716 32.3253 173.78 31.024 173.78 29.616V1.328H183.38V28.336C183.38 31.408 183.167 34.096 182.74 36.4C182.356 38.704 181.588 40.624 180.436 42.16C179.284 43.696 177.684 44.848 175.636 45.616C173.588 46.384 170.943 46.768 167.7 46.768C164.457 46.768 161.812 46.384 159.764 45.616C157.716 44.848 156.116 43.696 154.964 42.16C153.812 40.624 153.023 38.704 152.596 36.4C152.212 34.096 152.02 31.408 152.02 28.336V1.328H161.62ZM201.211 46H191.739V1.328H209.019C211.195 1.328 213.136 1.66933 214.843 2.352C216.55 2.992 217.979 3.93066 219.131 5.168C220.326 6.40533 221.222 7.89867 221.819 9.648C222.416 11.3973 222.715 13.36 222.715 15.536C222.715 18.6933 222.032 21.4027 220.667 23.664C219.302 25.9253 217.36 27.4187 214.843 28.144L223.611 46H213.115L205.627 29.424H201.211V46ZM206.715 22C208.976 22 210.534 21.5733 211.387 20.72C212.283 19.8667 212.731 18.4587 212.731 16.496V14.576C212.731 12.6133 212.283 11.2053 211.387 10.352C210.534 9.49866 208.976 9.072 206.715 9.072H201.211V22H206.715ZM0.12 90V45.328H29.752V53.2H9.72V63.44H27.64V71.312H9.72V90H0.12ZM61.215 90L58.399 79.248H46.175L43.423 90H33.695L45.791 45.328H59.359L71.455 90H61.215ZM52.575 54.608H52.063L47.711 71.504H56.927L52.575 54.608ZM84.166 90L72.326 45.328H83.014L88.262 68.048L90.886 80.912H91.398L94.086 68.048L99.398 45.328H109.574L97.734 90H84.166ZM129.325 90.768C123.352 90.768 118.936 88.7413 116.077 84.688C113.261 80.6347 111.853 74.96 111.853 67.664C111.853 60.368 113.261 54.6933 116.077 50.64C118.936 46.5867 123.352 44.56 129.325 44.56C135.298 44.56 139.693 46.5867 142.509 50.64C145.368 54.6933 146.797 60.368 146.797 67.664C146.797 74.96 145.368 80.6347 142.509 84.688C139.693 88.7413 135.298 90.768 129.325 90.768ZM129.325 83.024C132.056 83.024 133.933 82.0213 134.957 80.016C136.024 77.968 136.557 75.1307 136.557 71.504V63.76C136.557 60.176 136.024 57.3813 134.957 55.376C133.933 53.328 132.056 52.304 129.325 52.304C126.594 52.304 124.696 53.328 123.629 55.376C122.605 57.3813 122.093 60.176 122.093 63.76V71.568C122.093 75.152 122.605 77.968 123.629 80.016C124.696 82.0213 126.594 83.024 129.325 83.024ZM162.836 90H153.364V45.328H170.644C172.82 45.328 174.761 45.6693 176.468 46.352C178.175 46.992 179.604 47.9307 180.756 49.168C181.951 50.4053 182.847 51.8987 183.444 53.648C184.041 55.3973 184.34 57.36 184.34 59.536C184.34 62.6933 183.657 65.4027 182.292 67.664C180.927 69.9253 178.985 71.4187 176.468 72.144L185.236 90H174.74L167.252 73.424H162.836V90ZM168.34 66C170.601 66 172.159 65.5733 173.012 64.72C173.908 63.8667 174.356 62.4587 174.356 60.496V58.576C174.356 56.6133 173.908 55.2053 173.012 54.352C172.159 53.4987 170.601 53.072 168.34 53.072H162.836V66H168.34ZM191.675 90V82.896H201.275V52.432H191.675V45.328H220.475V52.432H210.875V82.896H220.475V90H191.675ZM249.25 53.2V90H239.65V53.2H226.786V45.328H262.114V53.2H249.25ZM268.745 90V45.328H297.289V53.2H278.345V63.44H296.649V71.312H278.345V82.128H297.289V90H268.745ZM57.4265 134V89.328H74.7065C76.8825 89.328 78.8238 89.6693 80.5305 90.352C82.2372 90.992 83.6665 91.9307 84.8185 93.168C86.0132 94.4053 86.9092 95.8987 87.5065 97.648C88.1038 99.3973 88.4025 101.36 88.4025 103.536C88.4025 105.712 88.1038 107.675 87.5065 109.424C86.9092 111.173 86.0132 112.667 84.8185 113.904C83.6665 115.141 82.2372 116.101 80.5305 116.784C78.8238 117.424 76.8825 117.744 74.7065 117.744H67.0905V134H57.4265ZM67.0905 110H72.2745C74.5358 110 76.0932 109.573 76.9465 108.72C77.8425 107.867 78.2905 106.459 78.2905 104.496V102.576C78.2905 100.613 77.8425 99.2053 76.9465 98.352C76.0932 97.4987 74.5358 97.072 72.2745 97.072H67.0905V110ZM118.778 134L115.962 123.248H103.738L100.986 134H91.2575L103.354 89.328H116.922L129.018 134H118.778ZM110.138 98.608H109.626L105.274 115.504H114.49L110.138 98.608ZM147.809 134.768C144.054 134.768 140.79 134.149 138.017 132.912C135.243 131.675 133.003 129.989 131.297 127.856L136.865 121.712C138.486 123.504 140.257 124.827 142.177 125.68C144.139 126.533 146.123 126.96 148.128 126.96C150.433 126.96 152.182 126.448 153.377 125.424C154.571 124.4 155.169 122.928 155.169 121.008C155.169 119.429 154.699 118.235 153.761 117.424C152.865 116.613 151.329 116.037 149.153 115.696L144.481 114.928C140.47 114.245 137.569 112.773 135.777 110.512C133.985 108.208 133.089 105.413 133.089 102.128C133.089 97.8187 134.497 94.4907 137.312 92.144C140.129 89.7547 144.075 88.56 149.153 88.56C152.609 88.56 155.617 89.0933 158.177 90.16C160.737 91.2267 162.806 92.6773 164.385 94.512L158.945 100.592C157.75 99.2693 156.342 98.2453 154.721 97.52C153.099 96.752 151.265 96.368 149.217 96.368C144.907 96.368 142.753 98.1387 142.753 101.68C142.753 103.216 143.222 104.368 144.161 105.136C145.142 105.904 146.721 106.48 148.897 106.864L153.569 107.696C157.195 108.336 159.99 109.701 161.953 111.792C163.915 113.883 164.897 116.699 164.897 120.24C164.897 122.331 164.534 124.272 163.809 126.064C163.083 127.813 161.995 129.349 160.545 130.672C159.094 131.952 157.302 132.955 155.169 133.68C153.078 134.405 150.625 134.768 147.809 134.768ZM191.688 97.2V134H182.088V97.2H169.224V89.328H204.552V97.2H191.688ZM233.903 134L231.087 123.248H218.863L216.111 134H206.383L218.479 89.328H232.047L244.143 134H233.903ZM225.263 98.608H224.751L220.399 115.504H229.615L225.263 98.608Z" fill="black"/>
</svg>
